<?xml version="1.0" encoding="UTF-8"?>
<svg viewBox="0 0 1206 908" version="1.1" xmlns="http://www.w3.org/2000/svg" xmlns:xlink="http://www.w3.org/1999/xlink">
    <title>logo</title>
    <g id="logo" stroke="none" stroke-width="1" fill="none" fill-rule="evenodd">
        <path
            d="M1082.88437,792.979184 C1082.88613,783.62822 1082.82265,774.276373 1082.93286,764.927176 C1082.95842,762.765931 1083.13474,760.404996 1084.02076,758.5 C1085.64557,755.001 1089.20374,754.682026 1092.54857,754.664355 C1105.91817,754.594552 1119.28865,754.635196 1132.65914,754.630778 C1134.27513,754.630778 1135.892,754.568928 1137.50711,754.600737 C1142.01918,754.690862 1144.94348,752.325509 1146.87861,748.498709 C1152.73073,736.922883 1158.6384,725.373563 1164.33712,713.721749 C1166.26431,709.779199 1165.0953,705.94268 1163.10904,702.155641 C1158.00981,692.431806 1153.11864,682.596638 1148.15254,672.802116 C1146.42017,669.384415 1144.83592,665.794415 1140.71264,664.630736 C1139.2571,664.218986 1137.68872,664.049338 1136.1697,664.04492 C1121.91849,664.001625 1107.66023,664.273768 1093.41695,663.906198 C1086.52365,663.728597 1082.59079,666.677115 1079.71763,672.626283 C1074.115,684.2295 1068.12535,695.645398 1062.28381,707.132867 C1060.09213,711.442987 1057.97538,715.795519 1055.62149,720.015513 C1053.73132,723.403172 1050.68712,725.129694 1046.74985,725.128811 C1041.31385,725.127927 1035.87697,725.08905 1030.44185,725.145599 C1025.9095,725.191545 1022.0454,722.987005 1022.05598,717.169491 C1022.06656,711.280408 1022.04452,705.392207 1022,699.503124 C1021.96606,695.011869 1023.94527,691.405082 1026.99211,688.357602 C1043.99394,671.348621 1061.00988,654.353777 1078.09811,637.433154 C1080.25805,635.294882 1082.85087,633.877614 1085.98146,632.967523 C1089.49732,631.946101 1092.9065,632.07422 1096.37211,632.056549 C1109.74259,631.987629 1123.11307,631.975259 1136.48268,632.055665 C1141.52901,632.086591 1146.11778,633.69913 1149.74737,637.324473 C1167.02426,654.578207 1184.25002,671.883189 1201.50311,689.159896 C1204.51557,692.17645 1206.01343,695.773518 1205.9905,700.049178 C1205.95788,706.233379 1205.94642,712.419347 1206,718.603547 C1206.03899,723.134563 1204.34366,726.823524 1201.15752,730.005308 C1183.8674,747.272296 1166.62754,764.589647 1149.35593,781.876074 C1146.3805,784.854634 1142.88051,786.526374 1138.53242,786.403556 C1133.61392,786.262182 1128.68661,786.287806 1123.76811,786.430063 C1121.97403,786.482194 1119.96661,786.679234 1118.47669,787.541611 C1117.0573,788.361576 1115.72254,789.974116 1115.18741,791.527456 C1114.49005,793.554396 1114.44597,795.865851 1114.42129,798.057138 C1114.3393,805.418271 1114.40895,812.782056 1114.37545,820.144957 C1114.36751,821.832601 1114.24585,823.527314 1114.05807,825.207006 C1113.70366,828.383489 1111.48906,830.770047 1108.34083,830.854871 C1102.0338,831.024519 1095.71619,831.056328 1089.40916,830.891982 C1085.75401,830.797439 1083.47505,828.598199 1083.27933,824.982576 C1082.97341,819.330293 1082.95842,813.661221 1082.89495,807.999218 C1082.83852,802.992835 1082.88349,797.985567 1082.88437,792.979184"
            id="Fill-1" fill="#2E2E2E" fill-rule="nonzero"></path>
        <path
            d="M1098.78516,907.95907 C1094.38426,907.95907 1089.98336,908.004471 1085.58335,907.948388 C1080.00231,907.878062 1077.33024,905.381918 1077.13384,899.702392 C1076.93656,893.99972 1077.04577,888.287255 1077.03344,882.579242 C1077.02552,879.243632 1076.94097,875.903572 1077.07572,872.572414 C1077.20166,869.454016 1077.84986,866.398822 1080.98606,864.908614 C1082.31769,864.275676 1083.93819,864.013955 1085.42746,864.009504 C1094.96024,863.983688 1104.4939,864.002382 1114.02492,864.167961 C1117.76088,864.232056 1119.80764,866.148673 1120.39948,869.909802 C1120.78787,872.381019 1120.92702,874.91099 1120.95785,877.417816 C1121.03447,883.570043 1120.98339,889.724051 1120.98251,895.877168 C1120.98251,896.544824 1121.00717,897.21337 1120.9737,897.878356 C1120.61878,904.813966 1119.01325,908.234145 1110.88608,907.987557 C1106.85596,907.865599 1102.81968,907.966192 1098.78516,907.966192 L1098.78516,907.95907 Z"
            id="Fill-3" fill="#2E2E2E" fill-rule="nonzero"></path>
        <path
            d="M222.366912,276 L238.397059,276 C243.740441,276 246.617647,273.137778 246.617647,267.822222 L246.617647,8.17777778 C246.617647,2.86222222 243.740441,0 238.397059,0 L224.011029,0 C218.667647,0 215.790441,2.86222222 215.790441,8.17777778 L215.790441,184.408889 C215.790441,192.586667 209.625,194.222222 205.925735,186.862222 L141.394118,67.0577778 C139.338971,63.3777778 136.050735,61.3333333 131.529412,61.3333333 L113.855147,61.3333333 C109.333824,61.3333333 106.045588,62.9688889 103.990441,67.0577778 L40.6919118,186.862222 C36.9926471,194.222222 30.8272059,192.586667 30.8272059,184.408889 L30.8272059,8.17777778 C30.8272059,2.86222222 27.95,0 22.6066176,0 L8.22058824,0 C2.87720588,0 3.63797881e-12,2.86222222 3.63797881e-12,8.17777778 L3.63797881e-12,267.822222 C3.63797881e-12,273.137778 2.87720588,276 8.22058824,276 L24.2507353,276 C28.7720588,276 31.6492647,273.955556 33.7044118,269.866667 L117.554412,103.04 C120.431618,96.9066667 126.186029,96.9066667 129.063235,103.04 L212.913235,269.866667 C214.968382,273.955556 217.845588,276 222.366912,276 Z"
            id="Path" fill="#2E2E2E" fill-rule="nonzero"></path>
        <path
            d="M312.382353,267.822222 L312.382353,67.0577778 C312.382353,62.9688889 313.615441,60.1066667 316.492647,57.2444444 L339.099265,34.7555556 C341.976471,31.8933333 343.209559,29.0311111 343.209559,24.9422222 L343.209559,8.17777778 C343.209559,2.86222222 340.332353,0 334.988971,0 L318.958824,0 C314.4375,0 311.560294,2.04444444 309.505147,6.13333333 L284.021324,56.4266667 C282.377206,60.1066667 281.555147,62.9688889 281.555147,66.6488889 L281.555147,267.822222 C281.555147,273.137778 284.432353,276 289.775735,276 L304.161765,276 C309.505147,276 312.382353,273.137778 312.382353,267.822222 Z"
            id="Path" fill="#2E2E2E" fill-rule="nonzero"></path>
        <path
            d="M441.445588,276 L550.779412,276 C556.122794,276 559,273.137778 559,267.822222 L559,253.511111 C559,248.195556 556.122794,245.333333 550.779412,245.333333 L442.267647,245.333333 C437.746324,245.333333 434.869118,243.288889 432.813971,239.2 L407.330147,188.906667 C405.686029,185.226667 404.863971,182.364444 404.863971,178.684444 L404.863971,161.511111 C404.863971,156.195556 407.741176,153.333333 413.084559,153.333333 L519.952206,153.333333 C525.295588,153.333333 528.172794,150.471111 528.172794,145.155556 L528.172794,130.844444 C528.172794,125.528889 525.295588,122.666667 519.952206,122.666667 L413.084559,122.666667 C407.741176,122.666667 404.863971,119.804444 404.863971,114.488889 L404.863971,38.8444444 C404.863971,33.5288889 407.741176,30.6666667 413.084559,30.6666667 L550.779412,30.6666667 C556.122794,30.6666667 559,27.8044444 559,22.4888889 L559,8.17777778 C559,2.86222222 556.122794,0 550.779412,0 L382.257353,0 C376.913971,0 374.036765,2.86222222 374.036765,8.17777778 L374.036765,208.942222 C374.036765,213.031111 375.269853,215.893333 378.147059,218.755556 L431.580882,271.911111 C434.869118,275.182222 437.335294,276 441.445588,276 Z"
            id="Path" fill="#2E2E2E" fill-rule="nonzero"></path>
        <path
            d="M30.7394366,584.822222 L30.7394366,384.057778 C30.7394366,379.968889 31.9690141,377.106667 34.8380282,374.244444 L57.3802817,351.755556 C60.2492958,348.893333 61.4788732,346.031111 61.4788732,341.942222 L61.4788732,325.177778 C61.4788732,319.862222 58.6098592,317 53.2816901,317 L37.2971831,317 C32.7887324,317 29.9197183,319.044444 27.8704225,323.133333 L2.45915493,373.426667 C0.81971831,377.106667 0,379.968889 0,383.648889 L0,584.822222 C0,590.137778 2.86901408,593 8.1971831,593 L22.5422535,593 C27.8704225,593 30.7394366,590.137778 30.7394366,584.822222 Z"
            id="Path" fill="#2E2E2E" fill-rule="nonzero"></path>
        <path
            d="M256.571831,508.768889 L232.390141,556.2 C230.340845,560.288889 227.471831,562.333333 222.96338,562.333333 L143.860563,562.333333 C139.352113,562.333333 136.483099,560.288889 134.433803,556.2 L109.432394,507.133333 C107.383099,503.044444 104.514085,501 100.005634,501 L84.0211268,501 C78.6929577,501 75.8239437,503.862222 75.8239437,509.177778 L75.8239437,525.942222 C75.8239437,530.031111 77.0535211,532.893333 79.9225352,535.755556 L133.204225,588.911111 C136.483099,592.182222 138.942254,593 143.040845,593 L223.783099,593 C227.88169,593 230.340845,592.182222 233.619718,588.911111 L286.901408,535.755556 C289.770423,532.893333 291,530.031111 291,525.942222 L291,481.373333 C291,476.875556 288.950704,473.604444 284.442254,471.968889 L114.760563,411.862222 C109.842254,410.226667 108.202817,406.546667 110.661972,401.231111 L134.433803,353.8 C136.483099,349.711111 139.352113,347.666667 143.860563,347.666667 L222.96338,347.666667 C227.471831,347.666667 230.340845,349.711111 232.390141,353.8 L257.391549,402.866667 C259.440845,406.955556 262.309859,409 266.81831,409 L282.802817,409 C288.130986,409 291,406.137778 291,400.822222 L291,384.057778 C291,379.968889 289.770423,377.106667 286.901408,374.244444 L233.619718,321.088889 C230.750704,318.226667 227.88169,317 223.783099,317 L143.040845,317 C138.942254,317 136.483099,317.817778 133.204225,321.088889 L79.9225352,374.244444 C77.0535211,377.106667 75.8239437,379.968889 75.8239437,384.057778 L75.8239437,420.448889 C75.8239437,424.946667 78.2830986,428.217778 82.3816901,429.853333 L252.473239,497.728889 C257.391549,499.773333 259.030986,503.862222 256.571831,508.768889 Z"
            id="Path" fill="#2E2E2E" fill-rule="nonzero"></path>
        <path
            d="M570,325.177778 L570,584.822222 C570,590.137778 572.873333,593 578.209524,593 L718.181905,593 C722.286667,593 724.749524,592.182222 728.033333,588.911111 L781.395238,535.755556 C784.268571,532.893333 785.5,530.031111 785.5,525.942222 L785.5,384.057778 C785.5,379.968889 784.268571,377.106667 781.395238,374.244444 L728.033333,321.088889 C725.16,318.226667 722.286667,317 718.181905,317 L578.209524,317 C572.873333,317 570,319.862222 570,325.177778 Z M752.251429,505.906667 L726.801905,556.2 C724.749524,560.288889 721.87619,562.333333 717.360952,562.333333 L608.995238,562.333333 C603.659048,562.333333 600.785714,559.471111 600.785714,554.155556 L600.785714,355.844444 C600.785714,350.528889 603.659048,347.666667 608.995238,347.666667 L717.360952,347.666667 C721.87619,347.666667 724.749524,349.711111 726.801905,353.8 L752.251429,404.093333 C753.893333,407.773333 754.714286,410.635556 754.714286,414.315556 L754.714286,495.684444 C754.714286,499.364444 753.893333,502.226667 752.251429,505.906667 Z"
            id="Shape" fill="#2E2E2E" fill-rule="nonzero"></path>
        <path
            d="M883.60381,593 L992.790476,593 C998.126667,593 1001,590.137778 1001,584.822222 L1001,570.511111 C1001,565.195556 998.126667,562.333333 992.790476,562.333333 L884.424762,562.333333 C879.909524,562.333333 877.03619,560.288889 874.98381,556.2 L849.534286,505.906667 C847.892381,502.226667 847.071429,499.364444 847.071429,495.684444 L847.071429,478.511111 C847.071429,473.195556 849.944762,470.333333 855.280952,470.333333 L962.004762,470.333333 C967.340952,470.333333 970.214286,467.471111 970.214286,462.155556 L970.214286,447.844444 C970.214286,442.528889 967.340952,439.666667 962.004762,439.666667 L855.280952,439.666667 C849.944762,439.666667 847.071429,436.804444 847.071429,431.488889 L847.071429,355.844444 C847.071429,350.528889 849.944762,347.666667 855.280952,347.666667 L992.790476,347.666667 C998.126667,347.666667 1001,344.804444 1001,339.488889 L1001,325.177778 C1001,319.862222 998.126667,317 992.790476,317 L824.495238,317 C819.159048,317 816.285714,319.862222 816.285714,325.177778 L816.285714,525.942222 C816.285714,530.031111 817.517143,532.893333 820.390476,535.755556 L873.752381,588.911111 C877.03619,592.182222 879.499048,593 883.60381,593 Z"
            id="Path" fill="#2E2E2E" fill-rule="nonzero"></path>
        <path
            d="M85,640.177778 L85,654.488889 C85,659.804444 87.8721973,662.666667 93.206278,662.666667 L169.11435,662.666667 C174.44843,662.666667 177.320628,665.528889 177.320628,670.844444 L177.320628,899.822222 C177.320628,905.137778 180.192825,908 185.526906,908 L199.887892,908 C205.221973,908 208.09417,905.137778 208.09417,899.822222 L208.09417,670.844444 C208.09417,665.528889 210.966368,662.666667 216.300448,662.666667 L292.20852,662.666667 C297.542601,662.666667 300.414798,659.804444 300.414798,654.488889 L300.414798,640.177778 C300.414798,634.862222 297.542601,632 292.20852,632 L93.206278,632 C87.8721973,632 85,634.862222 85,640.177778 Z"
            id="Path" fill="#2E2E2E" fill-rule="nonzero"></path>
        <path
            d="M479.311659,632 L339.394619,632 C334.060538,632 331.188341,634.862222 331.188341,640.177778 L331.188341,899.822222 C331.188341,905.137778 334.060538,908 339.394619,908 L353.755605,908 C359.089686,908 361.961883,905.137778 361.961883,899.822222 L361.961883,824.177778 C361.961883,818.862222 364.834081,816 370.168161,816 L448.127803,816 C452.230942,816 455.513453,817.635556 457.975336,821.315556 L514.188341,902.684444 C516.650224,906.364444 519.932735,908 524.035874,908 L538.396861,908 C543.730942,908 546.603139,905.137778 546.603139,899.822222 L546.603139,885.102222 C546.603139,881.013333 545.372197,878.56 542.5,875.288889 L490.800448,821.724444 C487.107623,817.635556 487.107623,813.955556 490.800448,810.275556 L542.5,758.755556 C545.372197,755.893333 546.603139,753.031111 546.603139,748.942222 L546.603139,699.057778 C546.603139,694.968889 545.372197,692.106667 542.5,689.244444 L489.159193,636.088889 C486.286996,633.226667 483.414798,632 479.311659,632 Z M487.928251,668.8 L512.957399,718.275556 C515.008969,721.955556 515.008969,726.044444 512.957399,729.724444 L487.928251,779.2 C485.876682,783.288889 483.004484,785.333333 478.491031,785.333333 L370.168161,785.333333 C364.834081,785.333333 361.961883,782.471111 361.961883,777.155556 L361.961883,670.844444 C361.961883,665.528889 364.834081,662.666667 370.168161,662.666667 L478.491031,662.666667 C483.004484,662.666667 485.876682,664.711111 487.928251,668.8 Z"
            id="Shape" fill="#2E2E2E" fill-rule="nonzero"></path>
        <path
            d="M626.61435,636.088889 L573.273543,689.244444 C570.401345,692.106667 569.170404,694.968889 569.170404,699.057778 L569.170404,840.942222 C569.170404,845.031111 570.401345,847.893333 573.273543,850.755556 L626.61435,903.911111 C629.896861,907.182222 632.358744,908 636.461883,908 L717.293722,908 C721.396861,908 723.858744,907.182222 727.141256,903.911111 L780.482063,850.755556 C783.35426,847.893333 784.585202,845.031111 784.585202,840.942222 L784.585202,699.057778 C784.585202,694.968889 783.35426,692.106667 780.482063,689.244444 L727.141256,636.088889 C724.269058,633.226667 721.396861,632 717.293722,632 L636.461883,632 C632.358744,632 629.486547,633.226667 626.61435,636.088889 Z M751.349776,820.906667 L725.910314,871.2 C723.858744,875.288889 720.986547,877.333333 716.473094,877.333333 L637.282511,877.333333 C632.769058,877.333333 629.896861,875.288889 627.845291,871.2 L602.40583,820.906667 C600.764574,817.226667 599.943946,814.364444 599.943946,810.684444 L599.943946,729.315556 C599.943946,725.635556 600.764574,722.773333 602.40583,719.093333 L627.845291,668.8 C629.896861,664.711111 632.769058,662.666667 637.282511,662.666667 L716.473094,662.666667 C720.986547,662.666667 723.858744,664.711111 725.910314,668.8 L751.349776,719.093333 C752.991031,722.773333 753.811659,725.635556 753.811659,729.315556 L753.811659,810.684444 C753.811659,814.364444 752.991031,817.226667 751.349776,820.906667 Z"
            id="Shape" fill="#2E2E2E" fill-rule="nonzero"></path>
        <path
            d="M815.358744,640.177778 L815.358744,899.822222 C815.358744,905.137778 818.230942,908 823.565022,908 L932.70852,908 C936.811659,908 939.273543,907.182222 942.556054,903.911111 L995.896861,850.755556 C998.769058,847.893333 1000,845.031111 1000,840.942222 L1000,824.177778 C1000,818.862222 997.127803,816 991.793722,816 L975.79148,816 C971.278027,816 968.40583,818.044444 966.35426,822.133333 L941.325112,871.2 C939.273543,875.288889 936.401345,877.333333 931.887892,877.333333 L854.338565,877.333333 C849.004484,877.333333 846.132287,874.471111 846.132287,869.155556 L846.132287,640.177778 C846.132287,634.862222 843.26009,632 837.926009,632 L823.565022,632 C818.230942,632 815.358744,634.862222 815.358744,640.177778 Z"
            id="Path" fill="#2E2E2E" fill-rule="nonzero"></path>
    </g>
</svg>